<mxfile host="www.draw.io" modified="2023-05-18T13:48:32.826Z" agent="Mozilla/5.0 (Windows NT 10.0; Win64; x64) AppleWebKit/537.36 (KHTML, like Gecko) Chrome/113.0.0.0 Safari/537.36 Edg/113.0.1774.42" etag="c2CUMmuJqZPEZaBJ6YS_" version="21.3.2" type="device" pages="2">
  <diagram name="Page-1" id="VIekuhdOZTpQXtKaAAdO">
    <mxGraphModel dx="168" dy="531" grid="1" gridSize="10" guides="1" tooltips="1" connect="1" arrows="1" fold="1" page="1" pageScale="1" pageWidth="850" pageHeight="1100" math="0" shadow="0">
      <root>
        <mxCell id="0" />
        <mxCell id="1" parent="0" />
        <mxCell id="Js-qpera-2Rh8wHbCUWh-1" value="START" style="ellipse;whiteSpace=wrap;html=1;" parent="1" vertex="1">
          <mxGeometry x="321" y="50" width="120" height="80" as="geometry" />
        </mxCell>
        <mxCell id="Js-qpera-2Rh8wHbCUWh-3" value="a = van_toc / 60&lt;br&gt;a /= 1000" style="rounded=0;whiteSpace=wrap;html=1;" parent="1" vertex="1">
          <mxGeometry x="100" y="351" width="120" height="60" as="geometry" />
        </mxCell>
        <mxCell id="Js-qpera-2Rh8wHbCUWh-4" value="van_toc = 33" style="shape=parallelogram;perimeter=parallelogramPerimeter;whiteSpace=wrap;html=1;fixedSize=1;" parent="1" vertex="1">
          <mxGeometry x="330" y="210" width="120" height="60" as="geometry" />
        </mxCell>
        <mxCell id="Js-qpera-2Rh8wHbCUWh-5" value="In ra&amp;nbsp; a" style="shape=parallelogram;perimeter=parallelogramPerimeter;whiteSpace=wrap;html=1;fixedSize=1;" parent="1" vertex="1">
          <mxGeometry x="100" y="520" width="120" height="60" as="geometry" />
        </mxCell>
        <mxCell id="Js-qpera-2Rh8wHbCUWh-6" value="END" style="ellipse;whiteSpace=wrap;html=1;" parent="1" vertex="1">
          <mxGeometry x="321" y="640" width="120" height="80" as="geometry" />
        </mxCell>
        <mxCell id="Js-qpera-2Rh8wHbCUWh-8" value="" style="endArrow=classic;html=1;rounded=0;entryX=0.5;entryY=0;entryDx=0;entryDy=0;exitX=0.587;exitY=0.97;exitDx=0;exitDy=0;exitPerimeter=0;" parent="1" source="Js-qpera-2Rh8wHbCUWh-1" target="Js-qpera-2Rh8wHbCUWh-4" edge="1">
          <mxGeometry width="50" height="50" relative="1" as="geometry">
            <mxPoint x="320" y="210" as="sourcePoint" />
            <mxPoint x="370" y="160" as="targetPoint" />
          </mxGeometry>
        </mxCell>
        <mxCell id="Js-qpera-2Rh8wHbCUWh-10" value="" style="endArrow=classic;html=1;rounded=0;entryX=0.5;entryY=0;entryDx=0;entryDy=0;" parent="1" source="Js-qpera-2Rh8wHbCUWh-4" target="Js-qpera-2Rh8wHbCUWh-3" edge="1">
          <mxGeometry width="50" height="50" relative="1" as="geometry">
            <mxPoint x="340" y="340" as="sourcePoint" />
            <mxPoint x="390" y="350" as="targetPoint" />
            <Array as="points">
              <mxPoint x="160" y="240" />
            </Array>
          </mxGeometry>
        </mxCell>
        <mxCell id="Js-qpera-2Rh8wHbCUWh-11" value="" style="endArrow=classic;html=1;rounded=0;entryX=0.585;entryY=0.016;entryDx=0;entryDy=0;entryPerimeter=0;exitX=0.578;exitY=1.013;exitDx=0;exitDy=0;exitPerimeter=0;" parent="1" source="Js-qpera-2Rh8wHbCUWh-3" target="Js-qpera-2Rh8wHbCUWh-5" edge="1">
          <mxGeometry width="50" height="50" relative="1" as="geometry">
            <mxPoint x="350" y="480" as="sourcePoint" />
            <mxPoint x="400" y="430" as="targetPoint" />
          </mxGeometry>
        </mxCell>
        <mxCell id="Js-qpera-2Rh8wHbCUWh-12" value="" style="endArrow=classic;html=1;rounded=0;entryX=0;entryY=0.5;entryDx=0;entryDy=0;exitX=0.5;exitY=1;exitDx=0;exitDy=0;" parent="1" source="Js-qpera-2Rh8wHbCUWh-5" target="Js-qpera-2Rh8wHbCUWh-6" edge="1">
          <mxGeometry width="50" height="50" relative="1" as="geometry">
            <mxPoint x="360" y="620" as="sourcePoint" />
            <mxPoint x="410" y="570" as="targetPoint" />
            <Array as="points">
              <mxPoint x="160" y="680" />
            </Array>
          </mxGeometry>
        </mxCell>
        <mxCell id="Js-qpera-2Rh8wHbCUWh-13" value="b = van_toc * 1.2" style="rounded=0;whiteSpace=wrap;html=1;" parent="1" vertex="1">
          <mxGeometry x="540" y="351" width="120" height="60" as="geometry" />
        </mxCell>
        <mxCell id="Js-qpera-2Rh8wHbCUWh-14" value="" style="endArrow=classic;html=1;rounded=0;entryX=0.5;entryY=0;entryDx=0;entryDy=0;" parent="1" target="Js-qpera-2Rh8wHbCUWh-13" edge="1">
          <mxGeometry width="50" height="50" relative="1" as="geometry">
            <mxPoint x="440" y="250" as="sourcePoint" />
            <mxPoint x="610" y="250" as="targetPoint" />
            <Array as="points">
              <mxPoint x="600" y="250" />
            </Array>
          </mxGeometry>
        </mxCell>
        <mxCell id="Js-qpera-2Rh8wHbCUWh-15" value="In ra&amp;nbsp; b" style="shape=parallelogram;perimeter=parallelogramPerimeter;whiteSpace=wrap;html=1;fixedSize=1;" parent="1" vertex="1">
          <mxGeometry x="540" y="520" width="120" height="60" as="geometry" />
        </mxCell>
        <mxCell id="Js-qpera-2Rh8wHbCUWh-16" value="" style="endArrow=classic;html=1;rounded=0;" parent="1" source="Js-qpera-2Rh8wHbCUWh-13" target="Js-qpera-2Rh8wHbCUWh-15" edge="1">
          <mxGeometry width="50" height="50" relative="1" as="geometry">
            <mxPoint x="580" y="470" as="sourcePoint" />
            <mxPoint x="630" y="420" as="targetPoint" />
          </mxGeometry>
        </mxCell>
        <mxCell id="Js-qpera-2Rh8wHbCUWh-17" value="" style="endArrow=classic;html=1;rounded=0;entryX=1;entryY=0.5;entryDx=0;entryDy=0;exitX=0.5;exitY=1;exitDx=0;exitDy=0;" parent="1" source="Js-qpera-2Rh8wHbCUWh-15" target="Js-qpera-2Rh8wHbCUWh-6" edge="1">
          <mxGeometry width="50" height="50" relative="1" as="geometry">
            <mxPoint x="520" y="650" as="sourcePoint" />
            <mxPoint x="570" y="600" as="targetPoint" />
            <Array as="points">
              <mxPoint x="600" y="680" />
            </Array>
          </mxGeometry>
        </mxCell>
      </root>
    </mxGraphModel>
  </diagram>
  <diagram id="8k1UV5lfXw6GFUuRgRfy" name="Page-2">
    <mxGraphModel dx="996" dy="541" grid="1" gridSize="10" guides="1" tooltips="1" connect="1" arrows="1" fold="1" page="1" pageScale="1" pageWidth="850" pageHeight="1100" math="0" shadow="0">
      <root>
        <mxCell id="0" />
        <mxCell id="1" parent="0" />
        <mxCell id="XkkU35kX7AsjymGzPOis-1" value="START" style="ellipse;whiteSpace=wrap;html=1;" parent="1" vertex="1">
          <mxGeometry x="340" y="20" width="120" height="80" as="geometry" />
        </mxCell>
        <mxCell id="TxBh1yMdBG6yhu0G5t2M-1" value="bao_gao = 50&lt;br&gt;bao_mi = 30&lt;br&gt;so_bao_gao = 27&lt;br&gt;so_bao_mi = 25" style="shape=parallelogram;perimeter=parallelogramPerimeter;whiteSpace=wrap;html=1;fixedSize=1;" vertex="1" parent="1">
          <mxGeometry x="340" y="130" width="120" height="60" as="geometry" />
        </mxCell>
        <mxCell id="TxBh1yMdBG6yhu0G5t2M-2" value="tong_can_bao_gao&lt;br&gt;tong_can_bao_mi&lt;br&gt;tong_can" style="rounded=0;whiteSpace=wrap;html=1;" vertex="1" parent="1">
          <mxGeometry x="340" y="220" width="120" height="60" as="geometry" />
        </mxCell>
        <mxCell id="TxBh1yMdBG6yhu0G5t2M-3" value="tong_can" style="shape=parallelogram;perimeter=parallelogramPerimeter;whiteSpace=wrap;html=1;fixedSize=1;" vertex="1" parent="1">
          <mxGeometry x="340" y="310" width="120" height="60" as="geometry" />
        </mxCell>
        <mxCell id="TxBh1yMdBG6yhu0G5t2M-4" value="DONE" style="ellipse;whiteSpace=wrap;html=1;" vertex="1" parent="1">
          <mxGeometry x="340" y="410" width="120" height="80" as="geometry" />
        </mxCell>
        <mxCell id="TxBh1yMdBG6yhu0G5t2M-5" value="" style="endArrow=classic;html=1;rounded=0;entryX=0.5;entryY=0;entryDx=0;entryDy=0;" edge="1" parent="1" source="TxBh1yMdBG6yhu0G5t2M-2" target="TxBh1yMdBG6yhu0G5t2M-3">
          <mxGeometry width="50" height="50" relative="1" as="geometry">
            <mxPoint x="400" y="320" as="sourcePoint" />
            <mxPoint x="450" y="270" as="targetPoint" />
          </mxGeometry>
        </mxCell>
        <mxCell id="TxBh1yMdBG6yhu0G5t2M-6" value="" style="endArrow=classic;html=1;rounded=0;entryX=0.5;entryY=0;entryDx=0;entryDy=0;exitX=0.5;exitY=1;exitDx=0;exitDy=0;" edge="1" parent="1" source="XkkU35kX7AsjymGzPOis-1" target="TxBh1yMdBG6yhu0G5t2M-1">
          <mxGeometry width="50" height="50" relative="1" as="geometry">
            <mxPoint x="350" y="170" as="sourcePoint" />
            <mxPoint x="400" y="120" as="targetPoint" />
          </mxGeometry>
        </mxCell>
        <mxCell id="TxBh1yMdBG6yhu0G5t2M-7" value="" style="endArrow=classic;html=1;rounded=0;entryX=0.5;entryY=0;entryDx=0;entryDy=0;" edge="1" parent="1" source="TxBh1yMdBG6yhu0G5t2M-1" target="TxBh1yMdBG6yhu0G5t2M-2">
          <mxGeometry width="50" height="50" relative="1" as="geometry">
            <mxPoint x="270" y="240" as="sourcePoint" />
            <mxPoint x="320" y="190" as="targetPoint" />
          </mxGeometry>
        </mxCell>
        <mxCell id="TxBh1yMdBG6yhu0G5t2M-8" value="" style="endArrow=classic;html=1;rounded=0;entryX=0.5;entryY=0;entryDx=0;entryDy=0;exitX=0.5;exitY=1;exitDx=0;exitDy=0;" edge="1" parent="1" source="TxBh1yMdBG6yhu0G5t2M-3" target="TxBh1yMdBG6yhu0G5t2M-4">
          <mxGeometry width="50" height="50" relative="1" as="geometry">
            <mxPoint x="370" y="420" as="sourcePoint" />
            <mxPoint x="420" y="370" as="targetPoint" />
          </mxGeometry>
        </mxCell>
      </root>
    </mxGraphModel>
  </diagram>
</mxfile>
